<svg width="265" height="257" viewBox="0 0 265 257" fill="none" xmlns="http://www.w3.org/2000/svg">
<path d="M186.552 251.933H97.4856L101.373 239.286L105.118 227.086H178.919L180.299 231.582L186.552 251.933Z" fill="white"/>
<path d="M186.552 252.44H97.445C97.3659 252.442 97.2877 252.424 97.2169 252.389C97.1462 252.354 97.0851 252.302 97.039 252.237C96.9909 252.173 96.9585 252.098 96.9444 252.019C96.9303 251.939 96.9349 251.858 96.9578 251.781L104.591 226.933C104.623 226.83 104.688 226.74 104.776 226.676C104.863 226.612 104.969 226.577 105.078 226.578H178.878C178.987 226.577 179.093 226.612 179.181 226.676C179.268 226.74 179.333 226.83 179.366 226.933L187.039 251.74C187.062 251.817 187.067 251.899 187.052 251.978C187.038 252.057 187.006 252.132 186.958 252.197C186.916 252.269 186.857 252.329 186.786 252.371C186.715 252.414 186.635 252.438 186.552 252.44V252.44ZM98.1758 251.425H185.862L178.543 227.593H105.463L98.1758 251.425Z" fill="#231F20"/>
<path d="M180.299 231.582L101.373 239.286L105.118 227.086H178.919L180.299 231.582Z" fill="#231F20"/>
<path d="M101.373 239.733C101.307 239.733 101.242 239.718 101.182 239.69C101.123 239.662 101.07 239.621 101.028 239.57C100.983 239.512 100.952 239.444 100.937 239.372C100.923 239.299 100.926 239.225 100.947 239.154L104.692 226.974C104.722 226.884 104.779 226.805 104.855 226.749C104.931 226.692 105.023 226.661 105.118 226.659H178.919C179.014 226.661 179.106 226.692 179.182 226.749C179.259 226.805 179.316 226.884 179.345 226.974L180.726 231.47C180.745 231.533 180.751 231.599 180.742 231.664C180.733 231.729 180.71 231.791 180.675 231.846C180.637 231.902 180.587 231.948 180.529 231.983C180.472 232.018 180.407 232.041 180.34 232.049L101.414 239.753L101.373 239.733ZM105.433 227.553L101.982 238.799L179.69 231.207L178.564 227.553H105.433Z" fill="#231F20"/>
<path d="M84.9199 250.725H199.107C200.055 250.725 200.964 251.101 201.634 251.771C202.304 252.441 202.68 253.35 202.68 254.298V255.8H81.3471V254.359C81.339 253.884 81.4254 253.413 81.6014 252.973C81.7773 252.532 82.0392 252.131 82.3718 251.793C82.7043 251.455 83.1009 251.186 83.5384 251.003C83.9759 250.819 84.4455 250.725 84.9199 250.725Z" fill="white"/>
<path d="M202.68 256.277H81.3471C81.2125 256.277 81.0834 256.224 80.9883 256.128C80.8931 256.033 80.8396 255.904 80.8396 255.77V254.338C80.8396 253.262 81.2673 252.229 82.0287 251.468C82.7901 250.706 83.8228 250.278 84.8996 250.278H199.107C200.184 250.278 201.217 250.706 201.978 251.468C202.74 252.229 203.167 253.262 203.167 254.338V255.8C203.16 255.926 203.106 256.044 203.016 256.133C202.926 256.221 202.806 256.272 202.68 256.277ZM81.8952 255.262H202.173V254.338C202.173 253.531 201.852 252.756 201.281 252.185C200.71 251.614 199.935 251.293 199.128 251.293H84.93C84.1225 251.293 83.348 251.614 82.7769 252.185C82.2059 252.756 81.885 253.531 81.885 254.338L81.8952 255.262Z" fill="#231F20"/>
<path d="M257.297 64.168H26.7401C23.2758 64.168 20.4674 66.9764 20.4674 70.4407V221.737C20.4674 225.201 23.2758 228.009 26.7401 228.009H257.297C260.762 228.009 263.57 225.201 263.57 221.737V70.4407C263.57 66.9764 260.762 64.168 257.297 64.168Z" fill="white"/>
<path d="M257.297 228.507H26.73C24.9344 228.507 23.2124 227.793 21.9428 226.524C20.6732 225.254 19.9599 223.532 19.9599 221.737V70.4306C19.9599 69.5415 20.135 68.6612 20.4752 67.8398C20.8155 67.0184 21.3141 66.2721 21.9428 65.6434C22.5715 65.0147 23.3178 64.5161 24.1392 64.1758C24.9606 63.8356 25.8409 63.6605 26.73 63.6605H257.297C259.094 63.6605 260.817 64.3735 262.088 65.6428C263.359 66.9121 264.075 68.6341 264.078 70.4306V221.737C264.075 223.533 263.359 225.255 262.088 226.524C260.817 227.794 259.094 228.507 257.297 228.507ZM26.73 64.6755C25.2036 64.6755 23.7398 65.2818 22.6605 66.3611C21.5812 67.4404 20.9749 68.9042 20.9749 70.4306V221.737C20.9749 223.263 21.5812 224.727 22.6605 225.806C23.7398 226.885 25.2036 227.492 26.73 227.492H257.297C258.825 227.492 260.289 226.886 261.37 225.807C262.451 224.728 263.06 223.264 263.063 221.737V70.4306C263.06 68.9033 262.451 67.4395 261.37 66.3605C260.289 65.2815 258.825 64.6755 257.297 64.6755H26.73Z" fill="#231F20"/>
<path d="M254.344 74.2368H29.6836V217.93H254.344V74.2368Z" fill="white"/>
<path d="M254.344 218.438H29.6836C29.549 218.438 29.4199 218.384 29.3247 218.289C29.2296 218.194 29.1761 218.065 29.1761 217.93V74.2368C29.1761 74.1022 29.2296 73.9731 29.3247 73.8779C29.4199 73.7828 29.549 73.7293 29.6836 73.7293H254.344C254.478 73.7293 254.607 73.7828 254.703 73.8779C254.798 73.9731 254.851 74.1022 254.851 74.2368V217.93C254.851 218.065 254.798 218.194 254.703 218.289C254.607 218.384 254.478 218.438 254.344 218.438ZM30.1911 217.423H253.836V74.7443H30.1911V217.423Z" fill="#231F20"/>
<path d="M92.9891 88.6396C92.9891 88.6396 64.3763 104.22 61.7068 147.104L97.8408 154.209L107.392 120.805L92.9891 88.6396Z" fill="#35387D"/>
<path d="M100.967 64.5842C94.7654 57.7329 88.7059 50.1509 86.9398 41.0768C86.3852 39.0053 86.5242 36.8093 87.3356 34.8244C88.2795 32.9162 90.6344 31.5865 92.6035 32.4087C91.7103 30.0031 93.1617 27.3337 94.8466 25.4458C98.9679 20.7548 104.674 17.7481 110.873 17.001C109.923 16.3868 109.145 15.5417 108.61 14.5447C108.358 14.0388 108.301 13.4575 108.451 12.9124C108.601 12.3673 108.946 11.8967 109.422 11.591C109.929 11.393 110.481 11.3402 111.016 11.4388C113.034 11.6929 114.935 12.5287 116.486 13.8443C115.157 13.2658 115.086 11.1647 116.172 10.2106C116.753 9.78102 117.449 9.53261 118.171 9.4965C118.893 9.46039 119.61 9.63818 120.232 10.0076C121.471 10.7629 122.542 11.7648 123.378 12.9511C123.255 12.6645 123.204 12.3519 123.23 12.0409C123.256 11.7299 123.358 11.4301 123.528 11.1682C123.698 10.9062 123.929 10.6901 124.202 10.539C124.475 10.3879 124.782 10.3065 125.094 10.302C125.607 10.3683 126.098 10.5562 126.525 10.8501C132.391 14.3518 136.015 21.0001 136.523 27.8513C136.87 34.7414 134.786 41.5346 130.636 47.045C126.483 52.5075 121.164 56.974 115.065 60.1182C110.234 62.7369 104.164 64.6958 99.3938 61.9452" fill="white"/>
<path d="M100.967 65.0916C100.897 65.0928 100.827 65.0789 100.762 65.0509C100.697 65.0229 100.639 64.9814 100.592 64.9292C94.2884 57.9562 88.2187 50.2625 86.4424 41.1782C85.874 38.9928 86.0271 36.6822 86.8788 34.5909C87.3265 33.6595 88.0442 32.8845 88.9386 32.3668C89.8329 31.849 90.8623 31.6125 91.893 31.688C91.4565 29.0591 93.2632 26.4912 94.4609 25.1108C98.3961 20.6383 103.751 17.6564 109.625 16.666C108.984 16.1472 108.468 15.4918 108.113 14.7476C107.802 14.1269 107.735 13.4129 107.922 12.7449C108.11 12.0768 108.54 11.5026 109.128 11.1342C109.719 10.8927 110.367 10.8257 110.995 10.9414C112.338 11.1066 113.639 11.5196 114.832 12.1594C114.806 11.728 114.876 11.2962 115.036 10.8946C115.195 10.493 115.441 10.1313 115.756 9.83504C116.416 9.33332 117.209 9.03853 118.037 8.98795C118.864 8.93736 119.688 9.13325 120.404 9.55084C121.319 10.0473 122.137 10.704 122.82 11.4895C122.892 11.2797 122.987 11.0788 123.104 10.8906C123.316 10.5449 123.615 10.2613 123.971 10.0688C124.328 9.87622 124.729 9.78157 125.134 9.79444C125.727 9.8671 126.294 10.0793 126.789 10.4136C132.564 13.8646 136.492 20.5636 137.03 27.8107C137.399 34.8227 135.278 41.7393 131.042 47.3393C126.852 52.8608 121.476 57.3702 115.309 60.5343C109.31 63.7721 104.144 64.5943 100.145 62.8586C100.541 63.3154 100.947 63.7721 101.353 64.2187C101.4 64.2659 101.438 64.3221 101.464 64.3839C101.49 64.4457 101.503 64.5121 101.503 64.5791C101.503 64.6461 101.49 64.7124 101.464 64.7742C101.438 64.8361 101.4 64.8922 101.353 64.9394C101.249 65.0387 101.111 65.0934 100.967 65.0916V65.0916ZM99.3837 61.4376C99.4725 61.4422 99.5591 61.4665 99.6374 61.5087C104.357 64.2289 110.498 62.006 114.862 59.6715C120.885 56.5518 126.132 52.1229 130.219 46.71C134.299 41.3116 136.351 34.6503 136.015 27.8919C135.487 20.929 131.752 14.5751 126.251 11.2865C125.892 11.04 125.483 10.877 125.053 10.8094C124.832 10.8192 124.617 10.8819 124.426 10.9921C124.234 11.1024 124.072 11.257 123.952 11.443C123.833 11.629 123.76 11.8409 123.74 12.0609C123.719 12.281 123.752 12.5027 123.835 12.7075C123.896 12.8187 123.912 12.949 123.88 13.0716C123.848 13.1942 123.77 13.3 123.662 13.3672C123.559 13.4381 123.432 13.467 123.308 13.4482C123.183 13.4294 123.071 13.3642 122.993 13.2657C122.186 12.1431 121.169 11.1882 119.998 10.4542C119.463 10.1381 118.848 9.98338 118.226 10.0086C117.605 10.0338 117.005 10.2379 116.497 10.5963C116.271 10.8176 116.103 11.0901 116.006 11.3906C115.909 11.691 115.885 12.0105 115.938 12.3218C115.974 12.5543 116.061 12.7761 116.192 12.9714C116.395 13.1236 116.608 13.286 116.801 13.4586C116.894 13.536 116.956 13.6446 116.974 13.7642C116.993 13.8838 116.968 14.0061 116.903 14.1082C116.838 14.2101 116.739 14.2862 116.625 14.3233C116.51 14.3603 116.385 14.3561 116.273 14.3112C115.963 14.1713 115.689 13.9631 115.471 13.7022C114.131 12.7515 112.575 12.1482 110.945 11.9462C110.507 11.8616 110.055 11.8967 109.635 12.0477C109.279 12.2966 109.024 12.6655 108.918 13.0868C108.812 13.5081 108.861 13.9536 109.057 14.3416C109.574 15.2546 110.305 16.0279 111.188 16.5949C111.268 16.657 111.327 16.741 111.36 16.8366C111.392 16.9322 111.396 17.0352 111.371 17.1329C111.346 17.2319 111.29 17.3204 111.211 17.386C111.133 17.4515 111.036 17.4908 110.934 17.4983C104.863 18.2442 99.2762 21.1911 95.2323 25.7807C94.0448 27.1408 92.1873 29.7899 93.0907 32.2361C93.1249 32.3295 93.1309 32.4308 93.108 32.5276C93.085 32.6243 93.0342 32.7122 92.9618 32.7804C92.8893 32.8485 92.7985 32.8938 92.7005 32.9107C92.6025 32.9277 92.5017 32.9154 92.4106 32.8755C90.6851 32.1447 88.5942 33.4338 87.8025 35.0476C87.0108 36.6615 86.9499 38.4174 87.4472 40.9854C88.9494 48.6994 93.7098 55.4491 99.0183 61.6102C99.0633 61.557 99.1192 61.514 99.1822 61.4843C99.2453 61.4545 99.3139 61.4386 99.3837 61.4376Z" fill="#231F20"/>
<path d="M199.341 217.93H104.946C104.042 209.414 103.373 203.649 103.373 203.649L193.626 185.998C194.246 190.312 196.357 202.005 199.341 217.93Z" fill="#231F20"/>
<path d="M199.341 218.377H104.946C104.836 218.378 104.729 218.338 104.647 218.265C104.564 218.192 104.512 218.091 104.499 217.981C103.606 209.557 102.936 203.771 102.926 203.7C102.914 203.588 102.945 203.475 103.013 203.385C103.081 203.294 103.18 203.233 103.291 203.213L193.545 185.562C193.603 185.547 193.663 185.546 193.721 185.558C193.779 185.571 193.834 185.596 193.88 185.633C193.931 185.668 193.974 185.714 194.007 185.766C194.04 185.818 194.063 185.877 194.073 185.938C194.672 190.099 196.651 201.163 199.787 217.849C199.801 217.913 199.8 217.979 199.784 218.042C199.768 218.106 199.738 218.165 199.696 218.215C199.653 218.267 199.599 218.309 199.537 218.337C199.476 218.365 199.409 218.379 199.341 218.377V218.377ZM105.342 217.484H198.803C195.829 201.629 193.911 190.972 193.241 186.526L103.85 204.035C104.022 205.446 104.601 210.541 105.342 217.484V217.484Z" fill="#231F20"/>
<path d="M152.367 50.0291C152.367 50.0291 154.813 56.1191 162.638 62.3816L169.165 55.3477L156.122 38.6509L152.367 50.0291Z" fill="white"/>
<path d="M162.638 62.95C162.524 62.9486 162.413 62.9093 162.324 62.8384C154.488 56.5657 152.001 50.5264 151.9 50.2727C151.859 50.1578 151.859 50.0323 151.9 49.9174L155.655 38.5494C155.683 38.4613 155.735 38.3825 155.805 38.3217C155.875 38.2609 155.96 38.2203 156.051 38.2043C156.141 38.1856 156.235 38.1928 156.321 38.2252C156.407 38.2575 156.483 38.3136 156.538 38.387L169.561 55.033C169.639 55.1249 169.683 55.2419 169.683 55.3629C169.683 55.4839 169.639 55.6008 169.561 55.6928L163.044 62.7369C162.997 62.8006 162.936 62.8529 162.866 62.8898C162.796 62.9267 162.718 62.9473 162.638 62.95V62.95ZM152.905 50.0595C153.351 51.0745 155.95 56.3221 162.588 61.7422L168.495 55.3172L156.315 39.7167L152.905 50.0595Z" fill="#231F20"/>
<path d="M167.825 49.6028C167.825 49.6028 154.935 60.1182 156.315 62.4933C157.695 64.8684 175.986 78.104 175.996 78.104C174.453 76.9976 168.282 78.104 166.516 78.104C158.396 78.2867 150.32 78.7806 142.288 79.5859C130.969 80.6772 119.724 82.4294 108.61 84.8334C104.164 85.8484 96.8563 86.2544 92.9891 88.6397C89.122 91.0249 90.1877 94.3338 91.3144 98.7085C91.8117 100.637 92.3294 102.586 92.7354 104.535C100.074 136.801 100.693 170.702 103.362 203.649C103.362 203.649 170.545 205.679 197.686 188.039L182.705 111.203C182.705 111.203 236.114 115.405 241.575 95.0443C247.036 74.6834 167.825 49.6028 167.825 49.6028Z" fill="#35387D"/>
<path d="M134.655 72.9579L139.212 88.1829C139.212 88.1829 139.324 95.7243 128.443 96.4145C117.562 97.1047 113.898 90.5884 113.898 90.5884L106.418 61.935C106.418 61.935 111.442 55.642 104.195 40.0211C104.195 40.0211 121.328 40.0211 135.792 33.4236C135.792 33.4236 141.719 51.8053 142.897 60.0268C144.074 68.2483 134.655 72.9579 134.655 72.9579Z" fill="white"/>
<path d="M126.88 96.9525C117.055 96.9525 113.685 91.0756 113.492 90.8625C113.485 90.8222 113.485 90.781 113.492 90.7407L106.001 62.0771C105.983 61.9999 105.983 61.9194 106 61.842C106.018 61.7645 106.053 61.6922 106.103 61.6305C106.103 61.5696 110.813 55.3375 103.809 40.2546C103.776 40.1766 103.762 40.0916 103.769 40.0071C103.777 39.9226 103.805 39.8412 103.851 39.77C103.897 39.6989 103.96 39.6401 104.034 39.599C104.108 39.5578 104.191 39.5355 104.276 39.5339C104.438 39.5339 121.47 39.4324 135.67 32.977C135.735 32.947 135.806 32.9314 135.878 32.9314C135.95 32.9314 136.021 32.947 136.086 32.977C136.15 33.006 136.208 33.048 136.255 33.1004C136.302 33.1528 136.338 33.2145 136.36 33.2815C136.421 33.4744 142.308 51.8053 143.465 59.976C144.571 67.4972 137.091 72.2474 135.345 73.2624L139.781 88.0712C139.791 88.1181 139.791 88.1665 139.781 88.2133C139.781 88.2945 139.781 96.242 128.534 96.9525C127.895 96.9322 127.357 96.9525 126.88 96.9525ZM114.375 90.355C114.761 91.0046 118.435 96.5059 128.403 95.8766C138.238 95.2574 138.684 88.9949 138.705 88.2336L134.168 73.1C134.134 72.9851 134.142 72.8619 134.19 72.7524C134.239 72.6428 134.324 72.5538 134.432 72.5011C134.523 72.5011 143.567 67.822 142.42 60.0674C141.354 52.7594 136.472 37.169 135.487 34.0732C122.942 39.6151 108.458 40.3662 104.976 40.4677C111.198 54.3225 107.788 60.7677 107.006 61.9959L114.375 90.355Z" fill="#231F20"/>
<path d="M110.955 59.6107C110.182 58.3241 109.009 57.3259 107.615 56.7687C106.311 56.3098 104.938 56.0764 103.555 56.0785C102.793 55.9985 102.023 56.0922 101.302 56.3525C100.815 56.6057 100.38 56.9503 100.023 57.3675C99.0949 58.2422 98.5084 59.4188 98.3687 60.6866C98.3828 61.7126 98.6476 62.7196 99.14 63.6199C99.5861 64.6398 100.166 65.5956 100.866 66.4619C101.585 67.3109 102.466 68.0082 103.458 68.5134C104.45 69.0187 105.532 69.3216 106.642 69.4047C107.752 69.4879 108.867 69.3495 109.923 68.9976C110.978 68.6457 111.954 68.0874 112.792 67.3551" fill="white"/>
<path d="M107.219 69.8926C106.996 69.8926 106.783 69.8926 106.56 69.8926C104.197 69.7022 102.006 68.5814 100.47 66.7765C99.7387 65.8768 99.1311 64.8835 98.663 63.8229C98.1452 62.8466 97.8669 61.7611 97.851 60.6561C97.9909 59.2617 98.6287 57.9644 99.6476 57.0021C100.052 56.5515 100.542 56.1858 101.089 55.9262C101.878 55.6273 102.726 55.5161 103.565 55.6014C105.021 55.5962 106.466 55.8399 107.839 56.3221C109.33 56.9249 110.586 57.9928 111.422 59.3671C111.457 59.4243 111.48 59.4879 111.49 59.5541C111.5 59.6204 111.497 59.6881 111.481 59.7532C111.465 59.8183 111.437 59.8796 111.397 59.9336C111.357 59.9875 111.307 60.033 111.249 60.0674C111.133 60.1354 110.995 60.1554 110.864 60.1232C110.733 60.091 110.62 60.0091 110.549 59.8948C109.843 58.711 108.776 57.7856 107.504 57.2559C106.236 56.8217 104.905 56.6021 103.565 56.6063C102.88 56.5294 102.186 56.6092 101.535 56.8397C101.112 57.0542 100.733 57.3469 100.419 57.7025C99.5805 58.4891 99.0452 59.5453 98.9066 60.6865C98.9309 61.6307 99.1778 62.5558 99.6272 63.3865C100.052 64.3665 100.613 65.2821 101.292 66.1067C102.665 67.706 104.612 68.7012 106.712 68.8776C107.754 68.9544 108.802 68.8234 109.793 68.4924C110.784 68.1613 111.7 67.6368 112.487 66.9491C112.534 66.9018 112.589 66.8643 112.65 66.8387C112.711 66.813 112.776 66.7998 112.843 66.7998C112.909 66.7998 112.974 66.813 113.035 66.8387C113.096 66.8643 113.152 66.9018 113.198 66.9491C113.245 66.9963 113.283 67.0524 113.309 67.1143C113.335 67.1761 113.348 67.2424 113.348 67.3094C113.348 67.3764 113.335 67.4428 113.309 67.5046C113.283 67.5664 113.245 67.6226 113.198 67.6698C111.544 69.1171 109.417 69.9079 107.219 69.8926V69.8926Z" fill="#231F20"/>
<path d="M131.843 47.7859C131.843 47.7859 139.821 53.7947 139.05 55.5811C138.278 57.3675 134.472 57.7025 134.472 57.7025" fill="white"/>
<path d="M134.472 58.2099C134.346 58.2078 134.225 58.1588 134.133 58.0725C134.041 57.9862 133.985 57.8688 133.975 57.743C133.968 57.6769 133.974 57.61 133.994 57.5463C134.013 57.4827 134.045 57.4236 134.087 57.3725C134.13 57.3214 134.182 57.2793 134.242 57.2488C134.301 57.2183 134.365 57.2 134.432 57.1949C135.447 57.1137 138.055 56.6265 138.583 55.3882C138.918 54.627 135.619 51.2673 131.539 48.1919C131.486 48.1519 131.441 48.1018 131.407 48.0445C131.373 47.9871 131.35 47.9236 131.341 47.8577C131.332 47.7917 131.335 47.7245 131.352 47.6599C131.368 47.5954 131.397 47.5347 131.437 47.4814C131.477 47.4281 131.527 47.3832 131.585 47.3492C131.642 47.3152 131.706 47.2929 131.772 47.2835C131.838 47.2741 131.905 47.2777 131.969 47.2943C132.034 47.3108 132.095 47.3399 132.148 47.3799C134.645 49.2576 140.359 53.8353 139.517 55.7841C138.674 57.7329 134.939 58.1693 134.523 58.1998L134.472 58.2099Z" fill="#231F20"/>
<path d="M119.481 46.1518C119.481 46.1518 121.237 41.4523 125.347 44.3857Z" fill="white"/>
<path d="M119.481 46.71H119.298C119.235 46.6864 119.177 46.6505 119.128 46.6044C119.08 46.5584 119.04 46.503 119.013 46.4417C118.985 46.3803 118.971 46.3141 118.969 46.2469C118.967 46.1797 118.979 46.1128 119.004 46.0502C119.238 45.3856 119.608 44.777 120.09 44.2633C120.572 43.7495 121.156 43.3418 121.805 43.0661C122.466 42.905 123.157 42.9038 123.819 43.0627C124.481 43.2215 125.095 43.5359 125.611 43.9796C125.718 44.0605 125.79 44.1798 125.811 44.3123C125.831 44.4449 125.8 44.5803 125.723 44.6901C125.644 44.7965 125.526 44.8677 125.395 44.8886C125.265 44.9095 125.131 44.8783 125.023 44.8018C124.63 44.4566 124.162 44.2073 123.657 44.0735C123.151 43.9396 122.622 43.9249 122.11 44.0304C121.611 44.2515 121.16 44.5688 120.784 44.9641C120.408 45.3595 120.113 45.8251 119.917 46.3344C119.894 46.4353 119.839 46.5261 119.76 46.5936C119.682 46.6611 119.584 46.7019 119.481 46.71Z" fill="#231F20"/>
<path d="M130.432 43.0256C130.432 43.0256 131.021 40.0821 135.507 42.2339Z" fill="white"/>
<path d="M130.432 43.5229H130.321C130.257 43.5096 130.196 43.4838 130.142 43.447C130.088 43.4103 130.042 43.3632 130.006 43.3085C129.97 43.2538 129.945 43.1926 129.933 43.1284C129.921 43.0642 129.922 42.9982 129.935 42.9342C130.023 42.5756 130.187 42.2403 130.417 41.9512C130.646 41.6621 130.935 41.4261 131.265 41.2595C132.361 40.7114 133.863 40.8941 135.731 41.7873C135.853 41.8451 135.948 41.9493 135.993 42.0768C136.039 42.2044 136.032 42.3448 135.974 42.4673C135.917 42.5898 135.812 42.6843 135.685 42.73C135.557 42.7756 135.417 42.7688 135.294 42.7109C133.752 41.97 132.513 41.7771 131.732 42.1628C131.531 42.2616 131.355 42.404 131.216 42.5796C131.077 42.7552 130.979 42.9596 130.93 43.1778C130.894 43.2802 130.826 43.3687 130.737 43.4306C130.648 43.4926 130.541 43.5249 130.432 43.5229Z" fill="#231F20"/>
<path d="M134.655 72.9579C134.655 72.9579 126.707 75.1605 122.414 73.9729C122.414 73.9729 127.986 82.2147 137.253 82.0929L134.655 72.9579Z" fill="#231F20"/>
<path d="M137.101 82.6613C127.763 82.6613 122.231 74.6327 121.998 74.2876C121.938 74.2047 121.906 74.1053 121.906 74.0034C121.906 73.9014 121.938 73.802 121.998 73.7192C122.056 73.6349 122.139 73.5704 122.235 73.5341C122.331 73.4979 122.436 73.4916 122.536 73.5162C126.647 74.6225 134.432 72.5012 134.513 72.5012C134.642 72.4669 134.779 72.485 134.895 72.5515C135.011 72.618 135.096 72.7276 135.132 72.8564L137.73 81.9914C137.75 82.0673 137.753 82.1465 137.739 82.2237C137.725 82.3008 137.694 82.374 137.649 82.438C137.601 82.4999 137.539 82.5503 137.469 82.5854C137.399 82.6205 137.322 82.6395 137.243 82.641L137.101 82.6613ZM123.632 74.7443C125.408 76.8352 130.006 81.4027 136.583 81.6362L134.3 73.5771C132.686 73.9932 127.448 75.2011 123.632 74.7443V74.7443Z" fill="#231F20"/>
<path d="M200.873 4.80066L132.97 65.3251L215.693 38.316L200.873 4.80066Z" fill="white"/>
<path d="M132.97 65.8326C132.881 65.83 132.794 65.8044 132.717 65.7581C132.641 65.7119 132.577 65.6466 132.534 65.5687C132.474 65.4685 132.452 65.3507 132.47 65.2357C132.489 65.1206 132.547 65.0158 132.635 64.9394L200.528 4.4251C200.588 4.37153 200.66 4.33264 200.737 4.3115C200.815 4.29036 200.896 4.28755 200.975 4.3033C201.054 4.31832 201.128 4.3532 201.191 4.40468C201.253 4.45616 201.301 4.52255 201.33 4.59765L216.159 38.0926C216.189 38.1562 216.205 38.2255 216.205 38.2956C216.205 38.3658 216.189 38.4351 216.159 38.4987C216.13 38.563 216.088 38.6206 216.036 38.6678C215.984 38.7149 215.922 38.7507 215.855 38.7727L133.132 65.7819C133.082 65.8088 133.027 65.826 132.97 65.8326V65.8326ZM200.691 5.6431L135.122 64.0868L215.002 38.0013L200.691 5.6431Z" fill="#231F20"/>
<path d="M152.367 50.0291C156.427 49.5317 160.882 45.4311 160.487 41.0362C160.05 35.342 154.65 37.8389 152.153 40.6606C150.783 42.2136 147.474 47.6946 149.667 49.5013C150.058 49.7675 150.498 49.9515 150.963 50.0423C151.427 50.133 151.904 50.1285 152.367 50.0291V50.0291Z" fill="white"/>
<path d="M151.646 50.5873C150.839 50.6288 150.043 50.3804 149.403 49.887C149.13 49.6564 148.908 49.371 148.752 49.0493C148.597 48.7275 148.511 48.3766 148.499 48.0194C148.296 45.5123 150.601 41.7061 151.829 40.3257C153.605 38.2957 156.66 36.5499 158.802 37.2807C159.715 37.5953 160.832 38.4885 161.045 41.0159C161.42 45.7559 156.711 50.0392 152.428 50.5569C152.168 50.5812 151.907 50.5913 151.646 50.5873ZM157.736 38.113C156.102 38.113 153.93 39.4832 152.59 40.9956C151.423 42.3151 149.342 45.8574 149.545 47.9382C149.549 48.1594 149.598 48.3775 149.691 48.5784C149.784 48.7794 149.917 48.9589 150.083 49.1054C150.412 49.326 150.782 49.4767 151.171 49.5483C151.561 49.6198 151.961 49.6108 152.346 49.5216V49.5216C156.112 49.075 160.395 45.2078 160.081 41.0768C159.949 39.4934 159.431 38.5291 158.518 38.2246C158.265 38.1465 158.001 38.1088 157.736 38.113V38.113Z" fill="#231F20"/>
<path d="M129.062 62.1888C129.062 62.1888 135.325 63.7519 133.559 68.6442Z" fill="white"/>
<path d="M133.559 69.1517C133.502 69.1613 133.443 69.1613 133.386 69.1517C133.26 69.1058 133.157 69.0117 133.099 68.8899C133.042 68.7681 133.036 68.6286 133.082 68.5021C133.291 68.0186 133.39 67.4947 133.373 66.9682C133.355 66.4416 133.221 65.9255 132.98 65.4571C131.965 63.4271 128.971 62.6861 128.92 62.6861C128.789 62.6525 128.676 62.5689 128.606 62.4531C128.536 62.3374 128.514 62.1988 128.545 62.0669C128.561 62.0022 128.59 61.9414 128.63 61.888C128.671 61.8346 128.721 61.7897 128.778 61.7557C128.836 61.7218 128.899 61.6995 128.966 61.6902C129.032 61.6809 129.099 61.6848 129.164 61.7015C129.306 61.7015 132.574 62.5745 133.853 64.98C134.16 65.5685 134.333 66.2173 134.361 66.8803C134.389 67.5433 134.271 68.2044 134.015 68.8167C133.984 68.9132 133.923 68.9973 133.841 69.0574C133.759 69.1174 133.66 69.1504 133.559 69.1517V69.1517Z" fill="#231F20"/>
<path d="M215.687 38.2883C220.748 36.3958 221.949 27.0978 218.368 17.5205C214.787 7.94324 207.781 1.71349 202.72 3.60597C197.658 5.49846 196.457 14.7965 200.038 24.3738C203.619 33.951 210.625 40.1808 215.687 38.2883Z" fill="#231F20"/>
<path d="M213.825 39.1483C208.811 39.1483 202.792 33.1902 199.615 24.5729C195.941 14.7477 197.28 5.1356 202.589 3.1462C205.228 2.1312 208.374 3.1462 211.48 5.907C214.821 9.0875 217.36 13.0146 218.89 17.3664V17.3664C220.591 21.6539 221.252 26.2837 220.818 30.876C220.28 34.9969 218.545 37.8085 215.916 38.7829C215.248 39.036 214.539 39.16 213.825 39.1483V39.1483ZM204.69 3.78565C204.093 3.78118 203.501 3.88789 202.944 4.1003C198.153 5.8867 197.088 14.9101 200.559 24.2176C204.03 33.5252 210.719 39.605 215.52 37.8389C217.783 36.9965 219.296 34.4793 219.773 30.7339C220.187 26.3056 219.544 21.8423 217.895 17.7115V17.7115C216.436 13.513 214.001 9.72114 210.79 6.64795C208.648 4.7702 206.527 3.78565 204.649 3.78565H204.69Z" fill="#231F20"/>
<path d="M203.584 98.8912C203.502 98.8888 203.422 98.868 203.35 98.8302C183.953 88.7411 161.603 67.6596 161.38 67.4464C161.333 67.4001 161.295 67.3449 161.269 67.2839C161.244 67.2229 161.231 67.1574 161.231 67.0912C161.231 67.025 161.244 66.9595 161.269 66.8985C161.295 66.8375 161.333 66.7823 161.38 66.736C161.427 66.6884 161.483 66.6506 161.545 66.6249C161.607 66.5991 161.673 66.5858 161.74 66.5858C161.807 66.5858 161.874 66.5991 161.935 66.6249C161.997 66.6506 162.053 66.6884 162.101 66.736C162.324 66.9491 184.573 87.9292 203.837 97.9472C203.898 97.9773 203.952 98.0192 203.996 98.0704C204.04 98.1216 204.073 98.1811 204.094 98.2453C204.115 98.3096 204.123 98.3774 204.117 98.4448C204.111 98.5121 204.092 98.5776 204.061 98.6374C204.012 98.7195 203.942 98.7867 203.858 98.8315C203.774 98.8762 203.679 98.8969 203.584 98.8912Z" fill="#231F20"/>
<path d="M192.855 163.78C192.736 163.782 192.62 163.741 192.529 163.664C192.438 163.588 192.377 163.481 192.358 163.364L180.523 99.9975C180.499 99.8657 180.528 99.7298 180.604 99.6195C180.681 99.5092 180.797 99.4335 180.929 99.4088C180.994 99.3956 181.062 99.3958 181.127 99.4092C181.192 99.4226 181.254 99.4491 181.309 99.487C181.364 99.5248 181.411 99.5734 181.447 99.6297C181.482 99.686 181.507 99.749 181.517 99.8148L193.342 163.181C193.366 163.313 193.337 163.449 193.261 163.559C193.184 163.67 193.068 163.745 192.936 163.77L192.855 163.78Z" fill="#231F20"/>
<path d="M131.326 96.0086L126.332 102.768L131.305 105.813L137.74 168.693L151.179 175.747L157.097 162.471L135.386 104.961L137.832 100.515L131.326 96.0086Z" fill="#231F20"/>
<path d="M151.179 176.244C151.099 176.243 151.019 176.226 150.946 176.194L137.507 169.139C137.433 169.1 137.37 169.043 137.322 168.974C137.275 168.906 137.244 168.826 137.233 168.743L130.828 106.118L126.068 103.195C126.008 103.16 125.956 103.111 125.917 103.053C125.879 102.995 125.854 102.929 125.845 102.86C125.83 102.792 125.829 102.721 125.843 102.653C125.857 102.585 125.885 102.521 125.926 102.464L130.92 95.704C131 95.5998 131.118 95.5302 131.248 95.5094C131.378 95.4887 131.511 95.5184 131.62 95.5924L138.116 100.099C138.218 100.171 138.29 100.278 138.318 100.4C138.346 100.522 138.329 100.649 138.268 100.759L135.944 105.001L157.574 162.298C157.62 162.419 157.62 162.553 157.574 162.674L151.646 175.95C151.618 176.013 151.577 176.07 151.527 176.117C151.476 176.164 151.417 176.2 151.352 176.224L151.179 176.244ZM138.218 168.368L150.936 175.047L156.548 162.461L134.919 105.144C134.886 105.079 134.869 105.008 134.869 104.935C134.869 104.863 134.886 104.792 134.919 104.727L137.142 100.667L131.427 96.6987L127.053 102.626L131.549 105.387C131.615 105.428 131.67 105.483 131.713 105.548C131.755 105.613 131.782 105.686 131.793 105.763L138.218 168.368Z" fill="#231F20"/>
<path d="M113.215 101.693L1.06177 132.543L21.4804 206.774L133.634 175.924L113.215 101.693Z" fill="white"/>
<path d="M41.9843 150.918L36.9686 152.29L36.6451 154.867L34.0833 155.568L35.9428 143.448L38.4121 142.772L46.1981 152.253L43.5745 152.971L41.9843 150.918ZM40.6779 149.235L37.8333 145.568L37.2518 150.172L40.6779 149.235ZM54.2713 138.433L57.2268 149.236L55.1742 149.798L47.9937 144.712L49.7881 151.271L47.3189 151.947L44.3634 141.144L46.4314 140.578L53.5964 145.668L51.802 139.109L54.2713 138.433ZM64.633 147.409C63.0897 147.831 61.7691 147.734 60.6713 147.116C59.5837 146.496 58.8232 145.393 58.3897 143.809L56.7346 137.759L59.2347 137.075L60.8645 143.032C61.3937 144.967 62.4608 145.714 64.0658 145.275C64.8477 145.061 65.3811 144.666 65.666 144.091C65.9481 143.505 65.9526 142.713 65.6795 141.715L64.0498 135.758L66.5191 135.082L68.1741 141.132C68.6076 142.717 68.509 144.054 67.8784 145.144C67.2581 146.232 66.1763 146.987 64.633 147.409ZM78.8975 131.696L81.853 142.499L79.8005 143.06L72.62 137.975L74.4144 144.534L71.9451 145.209L68.9896 134.406L71.0576 133.841L78.2227 138.93L76.4283 132.371L78.8975 131.696ZM84.2486 132.422L80.7916 133.367L80.2343 131.33L89.6483 128.755L90.2057 130.792L86.7487 131.738L89.1469 140.503L86.6468 141.187L84.2486 132.422ZM88.205 141.972C88.5343 141.882 88.814 141.894 89.0442 142.008C89.2876 142.129 89.4472 142.329 89.5232 142.607C89.6105 142.926 89.6094 143.285 89.5199 143.686L89.2668 144.883L88.1402 145.191L88.1883 143.851C87.9862 143.84 87.814 143.776 87.6717 143.661C87.5425 143.552 87.4498 143.395 87.3935 143.189C87.3175 142.912 87.3482 142.66 87.4855 142.434C87.636 142.216 87.8758 142.062 88.205 141.972Z" fill="#35387D"/>
<path d="M57.4555 156.124L60.411 166.927L58.3584 167.489L51.1779 162.403L52.9723 168.962L50.5031 169.638L47.5476 158.835L49.6156 158.269L56.7806 163.359L54.9862 156.8L57.4555 156.124ZM68.2493 164.982C67.1279 165.289 66.0483 165.324 65.0106 165.088C63.9832 164.85 63.0969 164.379 62.3517 163.676C61.6139 162.96 61.1001 162.072 60.8101 161.012C60.5202 159.952 60.5119 158.932 60.7852 157.95C61.066 156.956 61.5879 156.094 62.3507 155.366C63.1238 154.634 64.071 154.115 65.1925 153.808C66.314 153.502 67.3884 153.468 68.4158 153.706C69.4432 153.945 70.3309 154.421 71.079 155.134C71.8242 155.837 72.3418 156.718 72.6317 157.778C72.9216 158.838 72.9262 159.865 72.6454 160.86C72.3618 161.844 71.8386 162.7 71.0757 163.429C70.3129 164.157 69.3708 164.675 68.2493 164.982ZM67.6667 162.852C68.3046 162.678 68.8413 162.376 69.2769 161.947C69.7097 161.508 69.9984 160.987 70.1429 160.383C70.2978 159.777 70.2837 159.139 70.1007 158.47C69.9178 157.802 69.6053 157.246 69.1634 156.803C68.7318 156.357 68.2193 156.06 67.6261 155.913C67.03 155.755 66.413 155.764 65.7752 155.938C65.1373 156.113 64.6019 156.419 64.1691 156.859C63.7335 157.287 63.4383 157.805 63.2835 158.411C63.1389 159.015 63.1582 159.651 63.3411 160.32C63.5241 160.989 63.8314 161.546 64.263 161.992C64.7049 162.435 65.2239 162.735 65.82 162.893C66.4132 163.04 67.0288 163.027 67.6667 162.852ZM80.8387 161.538C79.2954 161.96 77.9748 161.862 76.877 161.245C75.7894 160.624 75.0289 159.522 74.5954 157.937L72.9403 151.888L75.4404 151.204L77.0702 157.161C77.5994 159.095 78.6665 159.843 80.2715 159.404C81.0534 159.19 81.5868 158.795 81.8717 158.219C82.1538 157.634 82.1583 156.842 81.8852 155.844L80.2555 149.887L82.7247 149.211L84.3798 155.261C84.8133 156.845 84.7147 158.183 84.0841 159.273C83.4638 160.36 82.382 161.115 80.8387 161.538Z" fill="#35387D"/>
<path d="M21.4723 207.283C21.3607 207.285 21.2516 207.251 21.1617 207.185C21.0718 207.119 21.0061 207.025 20.9749 206.918L0.563257 132.68C0.529017 132.551 0.547119 132.414 0.613631 132.298C0.680144 132.182 0.789696 132.097 0.918506 132.061L113.076 101.215C113.2 101.17 113.337 101.17 113.462 101.215C113.579 101.281 113.667 101.391 113.705 101.52L134.117 175.757C134.151 175.886 134.133 176.024 134.067 176.14C134 176.256 133.891 176.341 133.762 176.376L21.6042 207.273L21.4723 207.283ZM1.67976 132.904L21.8275 206.156L132.97 175.615L112.853 102.332L1.67976 132.904Z" fill="#231F20"/>
<path d="M82.0475 190.586C82.0475 190.586 82.2708 192.799 79.1547 194.971C76.0387 197.143 65.8887 199.975 63.7166 198.899C60.8766 197.641 58.4743 195.567 56.8146 192.941C55.0485 189.825 52.7546 185.897 53.9624 184.405C55.1703 182.913 57.6266 185.217 60.4686 190.089C60.4686 190.089 56.9465 181.289 59.1085 180.741C61.2704 180.193 62.7726 182.466 65.7466 186.689C65.7466 186.689 61.9606 177.401 64.8026 177.452C67.6446 177.503 73.8767 187.927 73.8767 187.379C73.8767 186.831 70.2227 177.899 73.3388 179.523C76.4548 181.147 78.8908 190.363 78.8908 190.363L82.0475 190.586Z" fill="white"/>
<path d="M65.2289 199.64C64.6356 199.672 64.0427 199.572 63.4933 199.346C60.5648 198.044 58.091 195.899 56.3883 193.185L56.1954 192.84C54.3177 189.531 52.1963 185.785 53.597 184.08C53.7589 183.863 53.9735 183.692 54.2205 183.582C54.4675 183.472 54.7385 183.426 55.0079 183.451C56.0229 183.532 57.2611 184.527 58.6821 186.404C58.0934 184.374 57.6671 182.009 58.1746 180.944C58.254 180.774 58.3697 180.625 58.5136 180.506C58.6575 180.386 58.8259 180.3 59.0069 180.254C60.8847 179.787 62.2448 181.015 64.082 183.461C63.4121 181.248 62.8741 178.64 63.6354 177.543C63.7649 177.347 63.9438 177.189 64.154 177.084C64.3642 176.979 64.5984 176.931 64.833 176.945C66.863 176.945 69.7862 180.781 72.5064 184.648C71.5726 181.603 71.258 179.726 72.0497 179.056C72.3034 178.833 72.7907 178.66 73.5925 179.056C76.5462 180.599 78.8096 188.11 79.307 189.866L82.1084 190.058C82.2275 190.067 82.3396 190.118 82.425 190.202C82.5104 190.285 82.5636 190.396 82.5753 190.515C82.5753 190.617 82.7884 193.053 79.4693 195.367C76.8811 197.174 69.1265 199.64 65.2289 199.64ZM54.8556 184.415C54.7582 184.419 54.6629 184.445 54.5768 184.49C54.4908 184.536 54.416 184.6 54.3583 184.679C53.4042 185.846 55.6067 189.754 57.0582 192.302L57.251 192.647C58.8663 195.185 61.1974 197.187 63.95 198.402C65.777 199.315 75.6732 196.737 78.8705 194.514C79.5219 194.137 80.0917 193.635 80.5465 193.035C81.0014 192.436 81.3322 191.751 81.5196 191.023L78.8502 190.83C78.7457 190.819 78.6468 190.777 78.5656 190.71C78.4844 190.644 78.4246 190.555 78.3934 190.454C77.7337 187.947 75.4905 181.187 73.0951 179.939C72.9692 179.852 72.8215 179.803 72.6688 179.797C72.4252 180.04 72.4456 181.309 73.9782 185.887C74.1676 186.347 74.3039 186.827 74.3842 187.318C74.3838 187.43 74.3483 187.539 74.2828 187.63C74.2173 187.721 74.125 187.789 74.0188 187.825C73.5925 187.957 73.5519 187.886 72.3034 186.1C70.7505 183.857 66.6195 177.98 64.7925 177.899C64.7267 177.892 64.6604 177.903 64.6 177.93C64.5396 177.956 64.487 177.998 64.4474 178.051C63.7369 179.066 65.0564 183.583 66.2236 186.435C66.2703 186.55 66.2722 186.678 66.229 186.795C66.1858 186.911 66.1006 187.007 65.9901 187.064C65.8828 187.126 65.7559 187.145 65.6352 187.117C65.5145 187.088 65.4091 187.015 65.3405 186.912L64.9853 186.415C62.1332 182.355 60.9253 180.761 59.2404 181.177C59.1795 181.177 59.1186 181.177 59.0577 181.34C58.4386 182.558 59.8799 187.196 60.9355 189.845C60.971 189.961 60.9639 190.086 60.9154 190.197C60.8669 190.308 60.7803 190.398 60.6711 190.451C60.5619 190.504 60.4374 190.516 60.3202 190.485C60.203 190.454 60.1008 190.382 60.0321 190.282C56.9161 184.953 55.3225 184.435 54.9571 184.405L54.8556 184.415Z" fill="#231F20"/>
<path d="M241.199 107.387C241.009 107.198 240.752 107.092 240.484 107.092C240.216 107.092 239.958 107.198 239.768 107.387C238.867 108.465 238.268 109.764 238.034 111.15C237.801 112.536 237.94 113.959 238.439 115.273C238.474 115.402 238.534 115.522 238.616 115.628C238.698 115.733 238.8 115.821 238.916 115.887C239.032 115.953 239.159 115.996 239.292 116.012C239.424 116.029 239.558 116.019 239.687 115.984C239.816 115.949 239.936 115.888 240.042 115.806C240.147 115.725 240.235 115.623 240.301 115.507C240.367 115.391 240.41 115.263 240.426 115.131C240.443 114.998 240.433 114.864 240.398 114.735C240.293 114.477 240.205 114.213 240.134 113.944C240.134 113.791 240.063 113.639 240.032 113.487C240.028 113.419 240.028 113.351 240.032 113.284V113.284C240.012 113.003 240.012 112.722 240.032 112.441C240.032 112.299 240.032 112.167 240.032 112.025C240.032 111.883 240.032 111.883 240.032 111.812C240.03 111.772 240.03 111.731 240.032 111.69C240.072 111.424 240.126 111.159 240.195 110.899C240.195 110.767 240.276 110.635 240.327 110.503C240.377 110.371 240.459 110.148 240.408 110.259C240.523 109.985 240.658 109.721 240.814 109.467C240.885 109.346 240.966 109.234 241.047 109.112C241.081 109.053 241.122 108.999 241.169 108.95V108.95L241.23 108.879C241.331 108.782 241.411 108.665 241.465 108.535C241.518 108.405 241.544 108.266 241.542 108.126C241.539 107.986 241.507 107.848 241.448 107.721C241.389 107.593 241.304 107.48 241.199 107.387V107.387Z" fill="#35387D" fill-opacity="0.7"/>
<path d="M229.537 172.235C228.318 170.991 226.88 169.982 225.294 169.261C225.178 168.695 224.949 168.158 224.621 167.682C224.293 167.206 223.873 166.801 223.386 166.49C221.153 165.079 218.159 165.769 215.814 166.49C214.576 166.876 215.104 168.845 216.362 168.439C217.844 167.864 219.436 167.624 221.021 167.739C221.787 167.827 222.487 168.214 222.97 168.815C222.848 168.815 222.737 168.815 222.615 168.815C221.967 168.843 221.334 169.018 220.764 169.328C220.194 169.637 219.702 170.073 219.326 170.601C218.957 171.102 218.783 171.721 218.837 172.341C218.891 172.962 219.17 173.541 219.621 173.971C221.498 175.574 224.178 173.971 225 172.042C225.09 171.831 225.164 171.614 225.223 171.393C226.276 172.015 227.244 172.768 228.106 173.636C229.06 174.6 230.501 173.128 229.537 172.235ZM221.569 172.6C220.981 172.661 220.676 172.367 220.981 171.819C221.195 171.512 221.484 171.265 221.819 171.098C222.154 170.931 222.525 170.851 222.899 170.865C223.027 170.855 223.156 170.855 223.285 170.865C223.203 171.288 222.995 171.677 222.689 171.981C222.383 172.285 221.993 172.49 221.569 172.57V172.6Z" fill="#35387D" fill-opacity="0.7"/>
<path d="M63.5947 209.81L63.5237 209.729L63.3613 209.496L63.0263 209.019C62.8132 208.704 62.6102 208.369 62.4275 208.004C62.2448 207.638 62.0722 207.313 61.9098 206.989C61.9098 206.989 61.7373 206.644 61.9098 206.897C61.9098 206.816 61.8388 206.715 61.7982 206.633C61.7576 206.552 61.6663 206.268 61.6054 206.085C61.5701 205.957 61.5099 205.836 61.428 205.731C61.3462 205.625 61.2444 205.537 61.1284 205.471C61.0125 205.405 60.8846 205.363 60.7523 205.346C60.6199 205.33 60.4855 205.339 60.3569 205.375C60.2282 205.41 60.1078 205.47 60.0024 205.552C59.897 205.634 59.8088 205.736 59.7428 205.852C59.6768 205.968 59.6343 206.095 59.6178 206.228C59.6013 206.36 59.611 206.495 59.6464 206.623C60.2242 208.303 61.0897 209.869 62.2042 211.252C62.3944 211.441 62.6516 211.547 62.9198 211.547C63.1879 211.547 63.4452 211.441 63.6354 211.252C63.7313 211.158 63.8075 211.046 63.8598 210.922C63.9121 210.798 63.9393 210.665 63.9399 210.531C63.9099 210.259 63.7882 210.004 63.5947 209.81V209.81Z" fill="#35387D" fill-opacity="0.7"/>
<path d="M220.483 193.185C220.355 193.149 220.22 193.14 220.088 193.156C219.956 193.173 219.828 193.215 219.712 193.281C219.596 193.347 219.494 193.435 219.412 193.541C219.33 193.646 219.27 193.766 219.235 193.895L219.174 194.037C219.123 194.149 219.072 194.25 219.032 194.352C218.991 194.453 218.819 194.788 218.697 195.002C218.465 195.444 218.211 195.874 217.936 196.291C217.804 196.494 217.662 196.697 217.52 196.889L217.337 197.133C217.29 197.185 217.246 197.239 217.205 197.295C216.88 197.681 216.545 198.057 216.19 198.412C216.084 198.503 215.997 198.615 215.936 198.741C215.875 198.867 215.841 199.004 215.836 199.144C215.83 199.283 215.854 199.423 215.905 199.553C215.956 199.683 216.033 199.802 216.132 199.901C216.231 199.999 216.35 200.077 216.48 200.128C216.61 200.179 216.749 200.202 216.889 200.197C217.029 200.192 217.166 200.157 217.292 200.097C217.418 200.036 217.53 199.949 217.621 199.843C219.171 198.271 220.396 196.409 221.224 194.362C221.274 194.108 221.225 193.845 221.087 193.626C220.95 193.408 220.734 193.25 220.483 193.185Z" fill="#35387D" fill-opacity="0.7"/>
<path d="M244.864 139.268C244.796 139.152 244.707 139.051 244.601 138.97C244.495 138.89 244.373 138.83 244.244 138.796C244.115 138.763 243.98 138.754 243.848 138.773C243.716 138.791 243.588 138.835 243.473 138.902L236.114 143.582C235.999 143.649 235.898 143.738 235.817 143.844C235.736 143.951 235.677 144.072 235.643 144.201C235.609 144.33 235.601 144.465 235.619 144.597C235.637 144.729 235.681 144.857 235.749 144.972C235.816 145.088 235.905 145.189 236.012 145.27C236.118 145.35 236.239 145.41 236.368 145.443C236.498 145.477 236.632 145.486 236.764 145.467C236.897 145.449 237.024 145.405 237.139 145.338L244.498 140.658C244.614 140.591 244.715 140.502 244.796 140.396C244.876 140.289 244.936 140.168 244.97 140.039C245.004 139.91 245.012 139.775 244.993 139.643C244.975 139.511 244.931 139.383 244.864 139.268Z" fill="#35387D" fill-opacity="0.7"/>
<path d="M247.878 202.056C247.262 201.456 246.499 201.029 245.665 200.817C244.964 200.671 244.302 200.373 243.727 199.945C243.118 199.356 243.361 198.422 243.514 197.691C243.796 196.786 243.827 195.822 243.605 194.9C243.047 193.205 241.25 191.946 239.657 193.205C239.468 193.395 239.362 193.652 239.362 193.921C239.362 194.189 239.468 194.446 239.657 194.636C239.751 194.731 239.863 194.807 239.987 194.858C240.111 194.91 240.243 194.936 240.377 194.936C240.511 194.936 240.644 194.91 240.768 194.858C240.891 194.807 241.004 194.731 241.098 194.636C240.986 194.727 241.027 194.636 241.098 194.738C241.251 194.848 241.379 194.99 241.474 195.154C241.604 195.396 241.684 195.662 241.708 195.936C241.733 196.21 241.701 196.486 241.616 196.747C241.321 198.31 240.986 199.975 242.184 201.254C243.128 202.269 244.498 202.462 245.706 202.959C246.138 203.12 246.498 203.429 246.721 203.832C246.792 203.979 246.85 204.132 246.894 204.289C246.902 204.336 246.902 204.384 246.894 204.431H246.823C246.602 204.571 246.444 204.792 246.381 205.046C246.319 205.3 246.357 205.569 246.488 205.795C246.619 206.022 246.833 206.189 247.084 206.262C247.336 206.335 247.606 206.308 247.838 206.187C249.441 205.273 248.974 203.243 247.878 202.056Z" fill="#35387D" fill-opacity="0.7"/>
<path d="M93.8519 195.915L95.5876 194.108C96.5011 193.174 95.0699 191.733 94.1564 192.677L92.1772 194.707C91.4768 195.428 90.7663 196.138 91.0505 197.245C91.182 197.67 91.3484 198.085 91.5479 198.483C91.7306 198.919 91.9234 199.346 92.1061 199.782C92.4817 200.675 92.8572 201.558 93.2429 202.452C93.3014 202.581 93.3864 202.697 93.4924 202.791C93.5984 202.886 93.7231 202.957 93.8583 203C93.9936 203.044 94.1364 203.058 94.2776 203.043C94.4188 203.027 94.5552 202.982 94.678 202.911C94.8008 202.84 94.9072 202.743 94.9904 202.628C95.0736 202.513 95.1317 202.382 95.161 202.243C95.1903 202.104 95.1901 201.96 95.1604 201.821C95.1307 201.683 95.0722 201.551 94.9887 201.437C94.3696 199.965 93.7098 198.503 93.1109 197.011C93.0744 196.932 93.0439 196.851 93.0196 196.768C93.3189 196.506 93.5972 196.22 93.8519 195.915V195.915Z" fill="#35387D" fill-opacity="0.7"/>
<path d="M81.6922 205.974C81.6534 205.844 81.5796 205.729 81.4791 205.639L81.2761 205.486C81.1194 205.393 80.9406 205.344 80.7584 205.344H80.4945C80.3248 205.386 80.1701 205.473 80.0479 205.598L79.2866 206.37C79.1864 206.456 79.1125 206.568 79.0735 206.694C79.0124 206.814 78.9811 206.946 78.9821 207.08C78.981 207.217 79.0123 207.353 79.0735 207.476C79.1153 207.601 79.1887 207.713 79.2866 207.801L79.4896 207.963C79.6443 208.051 79.8193 208.096 79.9971 208.095H80.2712C80.4404 208.047 80.5943 207.956 80.7178 207.831L81.4791 207.07C81.5731 206.975 81.6476 206.863 81.6981 206.739C81.7486 206.615 81.7742 206.483 81.7734 206.349C81.7808 206.219 81.7527 206.089 81.6922 205.974V205.974Z" fill="#35387D" fill-opacity="0.7"/>
<path d="M71.7147 92.0196C71.3295 91.52 70.814 91.1363 70.2249 90.9107C69.6357 90.685 68.9958 90.6262 68.3754 90.7407C69.0961 89.1336 70.1761 87.7134 71.532 86.5894C72.547 85.7571 71.0956 84.3259 70.0907 85.1582C68.1579 86.796 66.732 88.9508 65.98 91.37C65.9664 91.4284 65.9495 91.4861 65.9292 91.5425C65.6552 91.6948 65.3913 91.8572 65.1477 92.0196C64.0675 92.781 63.1858 93.7905 62.5765 94.9632C61.9672 96.1359 61.6481 97.4376 61.646 98.7592C61.646 99.0284 61.7529 99.2866 61.9432 99.4769C62.1336 99.6673 62.3917 99.7742 62.6609 99.7742C62.9301 99.7742 63.1883 99.6673 63.3787 99.4769C63.569 99.2866 63.6759 99.0284 63.6759 98.7592C63.6632 97.2622 64.2098 95.8144 65.2086 94.6992L65.5029 94.4048C65.5195 94.6044 65.557 94.8017 65.6146 94.9936C65.8129 95.5507 66.1989 96.0214 66.7063 96.3251C67.2137 96.6289 67.811 96.7466 68.3957 96.6582C69.6384 96.6097 70.8214 96.112 71.7249 95.2575C72.0865 94.7948 72.2821 94.224 72.2802 93.6368C72.2784 93.0496 72.0792 92.48 71.7147 92.0196V92.0196ZM70.2125 93.806C70.04 94.2932 68.8119 94.5266 68.3653 94.5875C67.6243 94.689 67.4213 94.3947 67.4924 93.6842C67.4924 93.4406 67.5329 93.197 67.6141 92.9534C68.1426 92.7446 68.7166 92.6781 69.2787 92.7606C69.705 92.8316 70.4155 93.2478 70.2125 93.806V93.806Z" fill="#35387D" fill-opacity="0.7"/>
<path d="M49.6385 87.6348C49.5791 87.0835 49.3911 86.5538 49.0897 86.0884C48.7882 85.623 48.3817 85.2348 47.9029 84.9552C47.0503 84.4071 45.8729 84.1229 45.2537 83.3312C44.9858 82.9944 44.8095 82.594 44.7419 82.169C44.6743 81.7439 44.7178 81.3087 44.868 80.9054C44.9393 80.6456 44.9046 80.3681 44.7713 80.134C44.6381 79.8998 44.4173 79.7282 44.1575 79.6569C43.8977 79.5856 43.6203 79.6203 43.3861 79.7536C43.152 79.8868 42.9804 80.1076 42.9091 80.3674C42.5858 81.4008 42.6376 82.5151 43.0554 83.5141C43.4732 84.513 44.2301 85.3325 45.1928 85.8281C45.6496 86.0717 46.1368 86.2747 46.5834 86.5285C46.7873 86.6357 46.9809 86.7614 47.1619 86.904C47.2211 86.9565 47.2755 87.0142 47.3243 87.0765V87.0765L47.3852 87.1679L47.4766 87.3404C47.4998 87.3969 47.5201 87.4545 47.5375 87.513C47.5603 87.586 47.5772 87.6606 47.5882 87.7363C47.5882 87.7363 47.5882 87.8885 47.5882 87.9088C47.5915 87.9256 47.5915 87.9428 47.5882 87.9596C47.5882 87.9596 47.5882 87.9596 47.5882 87.9596V88.051C47.3463 88.1346 47.1449 88.3067 47.0245 88.5325C46.904 88.7584 46.8733 89.0214 46.9386 89.2689C46.9738 89.3976 47.0341 89.5181 47.1159 89.6235C47.1978 89.7288 47.2996 89.817 47.4155 89.883C47.5315 89.949 47.6593 89.9915 47.7917 90.008C47.9241 90.0246 48.0584 90.0149 48.1871 89.9794C48.6485 89.7961 49.0388 89.4691 49.3001 89.0469C49.5615 88.6247 49.6801 88.1296 49.6385 87.6348V87.6348Z" fill="#35387D" fill-opacity="0.7"/>
<path d="M201.625 117.516C201.026 116.999 199.757 116.501 199.899 115.486C200.041 114.471 201.269 113.609 202.061 113.081C203.147 112.37 202.132 110.604 201.046 111.335C199.402 112.421 197.331 114.268 198.001 116.491C198.359 117.406 199.018 118.172 199.869 118.663C200.061 118.795 200.752 119.232 200.742 119.516C200.742 119.638 200.447 119.77 200.325 119.841C198.783 120.632 196.986 121.099 197.006 123.231C197.156 124.299 197.5 125.331 198.021 126.276C198.245 126.824 198.549 127.829 197.879 128.143C196.692 128.681 197.717 130.427 198.894 129.889C200.701 129.067 200.437 126.722 199.757 125.22C199.432 124.51 198.559 123.19 199.28 122.52C199.906 122.089 200.589 121.747 201.31 121.505C203.086 120.703 203.086 118.775 201.625 117.516Z" fill="#35387D" fill-opacity="0.7"/>
<path d="M219.509 133.452C218.259 133.352 217.02 133.744 216.056 134.544C215.091 135.344 214.476 136.489 214.343 137.735C214.343 138.04 214.343 138.354 214.292 138.659C214.276 138.87 214.199 139.071 214.068 139.237C213.874 139.447 213.624 139.599 213.348 139.674C212.456 139.892 211.528 139.912 210.628 139.735C210.499 139.699 210.365 139.69 210.232 139.706C210.1 139.723 209.972 139.765 209.856 139.831C209.74 139.897 209.638 139.985 209.557 140.091C209.475 140.196 209.414 140.317 209.379 140.445C209.307 140.704 209.341 140.98 209.472 141.214C209.603 141.448 209.822 141.62 210.08 141.694C212.11 142.039 215.073 142.1 216.048 139.826C216.249 139.168 216.355 138.484 216.362 137.796C216.423 137.343 216.605 136.915 216.89 136.558C217.192 136.162 217.593 135.853 218.053 135.662C218.513 135.471 219.015 135.406 219.509 135.472C219.778 135.472 220.036 135.365 220.227 135.174C220.417 134.984 220.524 134.726 220.524 134.457C220.524 134.188 220.417 133.929 220.227 133.739C220.036 133.549 219.778 133.442 219.509 133.442V133.452Z" fill="#35387D" fill-opacity="0.7"/>
<path d="M208.161 177.158C208.126 177.029 208.066 176.909 207.984 176.803C207.902 176.698 207.8 176.61 207.684 176.544C207.568 176.478 207.441 176.435 207.308 176.419C207.176 176.402 207.041 176.412 206.913 176.447C205.221 176.864 203.711 177.818 202.609 179.167C202.428 179.365 202.323 179.62 202.315 179.888C202.319 180.157 202.424 180.414 202.609 180.609C202.704 180.704 202.816 180.779 202.939 180.831C203.063 180.882 203.196 180.909 203.33 180.909C203.464 180.909 203.596 180.882 203.72 180.831C203.844 180.779 203.956 180.704 204.05 180.609C204.283 180.31 204.541 180.031 204.822 179.776L205.025 179.594C205.063 179.572 205.097 179.545 205.126 179.513L205.208 179.452L205.309 179.381L205.563 179.208C205.889 179.015 206.228 178.845 206.578 178.701H206.679L206.943 178.599C207.127 178.539 207.313 178.488 207.501 178.447C207.63 178.407 207.749 178.341 207.852 178.254C207.956 178.167 208.04 178.061 208.102 177.941C208.163 177.821 208.2 177.69 208.21 177.555C208.22 177.421 208.204 177.286 208.161 177.158Z" fill="#35387D" fill-opacity="0.7"/>
<path d="M59.3318 109.64C58.6905 108.911 57.7965 108.452 56.8302 108.356C55.8639 108.26 54.8971 108.534 54.1248 109.122C53.5095 108.528 52.7808 108.063 51.9821 107.756C51.1835 107.449 50.3312 107.306 49.4761 107.336C48.4062 107.397 47.3645 107.703 46.4311 108.229C45.509 107.56 44.3807 107.236 43.244 107.316C40.3716 107.58 38.6461 110.361 38.4228 112.99C38.3111 114.299 40.3411 114.289 40.4528 112.99C40.477 112.201 40.7377 111.437 41.201 110.798C41.6643 110.16 42.3089 109.675 43.0512 109.407C43.678 109.255 44.3388 109.338 44.9086 109.64V109.64C44.6321 110.094 44.5043 110.622 44.5432 111.152C44.5822 111.655 44.8166 112.122 45.196 112.454C45.5754 112.786 46.0698 112.957 46.5732 112.929C47.8318 112.868 48.2784 111.69 48.045 110.594C47.9858 110.317 47.8938 110.048 47.7709 109.792C48.3324 109.512 48.9501 109.363 49.5776 109.356C50.2742 109.329 50.9668 109.474 51.5948 109.776C52.2229 110.079 52.7674 110.53 53.1809 111.091C53.2707 111.243 53.3985 111.368 53.5515 111.456C53.7045 111.543 53.8776 111.589 54.0538 111.589C54.2299 111.589 54.403 111.543 54.556 111.456C54.709 111.368 54.8368 111.243 54.9267 111.091C55.1 110.864 55.3234 110.68 55.5796 110.553C55.8357 110.426 56.1177 110.361 56.4035 110.361C56.6893 110.361 56.9712 110.426 57.2274 110.553C57.4835 110.68 57.707 110.864 57.8803 111.091C58.7126 112.106 60.1438 110.655 59.3318 109.64Z" fill="#35387D" fill-opacity="0.7"/>
</svg>
